<?xml version="1.0" encoding="UTF-8"?>
<svg width="128" height="128" viewBox="0 0 128 128" xmlns="http://www.w3.org/2000/svg">
  <rect width="128" height="128" rx="20" fill="#4285F4"/>
  <path d="M64 24C41.92 24 24 41.92 24 64s17.92 40 40 40 40-17.92 40-40S86.08 24 64 24zm0 72c-17.68 0-32-14.32-32-32s14.32-32 32-32 32 14.32 32 32-14.32 32-32 32z" fill="white"/>
  <path d="M64 40c-13.25 0-24 10.75-24 24s10.75 24 24 24 24-10.75 24-24-10.75-24-24-24zm0 40c-8.84 0-16-7.16-16-16s7.16-16 16-16 16 7.16 16 16-7.16 16-16 16z" fill="white"/>
</svg> 